<svg width="160" height="31" viewBox="0 0 160 31" fill="none" xmlns="http://www.w3.org/2000/svg">
<g clip-path="url(#clip0)">
<path d="M160 2.29444C160.012 2.76308 159.884 3.2247 159.633 3.62024C159.381 4.01577 159.017 4.32724 158.588 4.51479C158.158 4.70234 157.683 4.75744 157.221 4.67303C156.76 4.58863 156.335 4.36856 156 4.04099C155.665 3.71341 155.435 3.29324 155.339 2.83421C155.244 2.37519 155.288 1.8982 155.465 1.46427C155.643 1.03034 155.946 0.659211 156.335 0.398366C156.724 0.137521 157.183 -0.0011761 157.652 2.12167e-05C157.957 -0.00600853 158.261 0.0488186 158.545 0.161309C158.829 0.273799 159.088 0.441704 159.306 0.655243C159.525 0.868782 159.699 1.12369 159.818 1.40511C159.937 1.68653 159.999 1.98885 160 2.29444V2.29444ZM155.878 2.29444C155.87 2.53324 155.911 2.77106 155.998 2.99368C156.085 3.21631 156.215 3.41915 156.382 3.59009C156.549 3.76103 156.749 3.89654 156.969 3.98853C157.19 4.08051 157.426 4.12708 157.665 4.12544C157.9 4.12436 158.133 4.0761 158.349 3.98349C158.565 3.89089 158.76 3.75584 158.923 3.58636C159.086 3.41687 159.213 3.21639 159.297 2.99681C159.381 2.77723 159.42 2.54302 159.412 2.30807C159.425 2.06851 159.389 1.82879 159.307 1.60349C159.224 1.3782 159.097 1.17202 158.932 0.997507C158.767 0.822989 158.569 0.683772 158.349 0.588316C158.129 0.492861 157.892 0.44316 157.652 0.442235C157.412 0.441309 157.174 0.489179 156.954 0.582935C156.733 0.67669 156.533 0.814373 156.368 0.987616C156.202 1.16086 156.073 1.36604 155.988 1.5907C155.904 1.81535 155.867 2.05478 155.878 2.29444V2.29444ZM157.288 3.49617H156.757V1.20402C157.048 1.15394 157.343 1.13113 157.638 1.13587C157.914 1.11346 158.191 1.17186 158.435 1.30398C158.508 1.36562 158.567 1.44296 158.606 1.53026C158.645 1.61755 158.665 1.71258 158.662 1.8083C158.652 1.93637 158.6 2.05754 158.514 2.15317C158.429 2.24881 158.314 2.31361 158.188 2.33761V2.36714C158.301 2.41397 158.4 2.49062 158.473 2.589C158.547 2.68737 158.593 2.8038 158.605 2.92598C158.63 3.12476 158.686 3.31819 158.774 3.49845H158.201C158.113 3.32236 158.052 3.13396 158.019 2.93961C157.979 2.68745 157.838 2.57613 157.545 2.57613H157.293L157.288 3.49617ZM157.302 2.19676H157.554C157.847 2.19676 158.085 2.09908 158.085 1.86055C158.085 1.62202 157.931 1.5107 157.597 1.5107C157.498 1.50912 157.399 1.51903 157.302 1.54024V2.19676Z" fill="black"/>
<path d="M80.7529 9.8501C79.7831 9.02775 78.3 8.4212 76.2105 7.99639C72.6106 7.26036 71.952 6.438 71.952 5.08634V5.03863C71.952 3.64835 73.351 2.63971 75.2793 2.63971C76.9373 2.60833 78.5437 3.21686 79.7649 4.33895L80.3441 4.83645L82.0725 2.69196L81.4956 2.23762C79.5673 0.681505 77.7799 0.047699 75.3315 0.047699C71.8588 0.047699 69.2424 2.24444 69.2424 5.15676V5.20447C69.2424 8.11225 71.098 9.72743 75.4474 10.6066C78.9246 11.3063 79.5628 12.1036 79.5628 13.4712C79.5628 14.9796 78.1342 16.0337 76.0924 16.0337C73.9347 16.0337 72.4017 15.3953 70.6233 13.762L70.0646 13.2463L68.2794 15.2908L68.8177 15.7793C71.0299 17.7488 73.2511 18.628 76.0197 18.628C79.7036 18.628 82.2746 16.4585 82.2746 13.3531V13.3054C82.2746 11.8515 81.7772 10.7202 80.7529 9.8501Z" fill="black"/>
<path d="M99.8651 2.81225C99.008 1.92103 97.9795 1.21244 96.8415 0.729119C95.7035 0.2458 94.4794 -0.00226132 93.2431 -0.000139085C92.0067 0.00198315 90.7836 0.254245 89.6472 0.741468C88.5109 1.22869 87.4848 1.94081 86.6308 2.83497C84.9973 4.62192 84.1042 6.9632 84.1324 9.38429C84.1095 11.7796 84.9949 14.0947 86.6103 15.8632C87.4678 16.754 88.4964 17.4621 89.6345 17.9451C90.7726 18.428 91.9966 18.6758 93.2328 18.6734C94.4691 18.6711 95.6921 18.4187 96.8284 17.9315C97.9646 17.4443 98.9906 16.7322 99.8447 15.8382C101.436 14.1102 102.326 11.8515 102.343 9.50242C102.358 9.43999 102.366 9.3759 102.366 9.3116C102.368 9.26319 102.362 9.21469 102.348 9.16848C102.338 6.81489 101.453 4.54908 99.8651 2.81225V2.81225ZM99.5835 9.33659V9.38429C99.5835 13.203 96.858 16.0813 93.2582 16.0813C92.4039 16.0882 91.5577 15.917 90.7732 15.5787C89.9888 15.2404 89.2835 14.7423 88.7021 14.1163C87.5039 12.7973 86.854 11.0707 86.8851 9.28888C86.8851 5.47242 89.6106 2.59417 93.2082 2.59417C94.0628 2.5871 94.9094 2.75818 95.6943 3.09651C96.4791 3.43483 97.1848 3.93297 97.7665 4.55919C98.9558 5.86368 99.6053 7.57131 99.5835 9.33659V9.33659Z" fill="black"/>
<path d="M149.166 11.0859C151.951 10.3158 153.604 8.31217 153.604 5.63383C153.606 4.24106 153.059 2.90376 152.08 1.91278C150.847 0.681511 148.939 0 146.72 0H138.748V18.6689H141.549V11.5652H146.016L151.49 18.6689H155.033L149.166 11.0859ZM141.54 2.69879H146.638C149.287 2.69879 150.808 3.78693 150.808 5.67926V5.72697C150.808 7.64656 149.144 8.88464 146.566 8.88464H141.54V2.69879Z" fill="black"/>
<path d="M128.487 0H126.302L117.66 18.6689H120.647L122.816 13.8983H131.901L134.07 18.6689H137.129L128.551 0.113585L128.487 0ZM130.676 11.2427H124.042L127.367 3.97321L130.676 11.2427Z" fill="black"/>
<path d="M107.226 0H104.426V18.6689L116.048 18.6711L116.175 18.6689L117.403 15.9724H107.226V0Z" fill="black"/>
<path d="M38.0042 4.31624H56.0694L57.2527 0H41.6494L38.0042 4.31624Z" fill="black"/>
<path d="M33.8138 11.404H54.1275L55.2904 7.16269H35.6012L33.3119 9.8751L33.8138 11.404Z" fill="black"/>
<path d="M36.2008 18.6711H52.1379L53.2985 14.4344H34.8086L36.2008 18.6711Z" fill="black"/>
<path d="M3.93146 4.31624H22.2897L20.8679 0H5.11476L3.93146 4.31624Z" fill="black"/>
<path d="M0 18.6712H15.8985L19.4847 14.4231H1.16286L0 18.6712Z" fill="black"/>
<path d="M31.3791 3.98911L32.492 7.3785L38.7151 0H34.7223L31.3791 3.98911Z" fill="black"/>
<path d="M29.5712 18.6712H33.8274L31.6039 11.8992L28.54 15.5339L29.5712 18.6712Z" fill="black"/>
<path d="M59.2037 15.284L63.2873 0H59.4103L54.3615 18.6711H65.0566L65.9446 15.2863L59.2037 15.284Z" fill="black"/>
<path d="M27.6951 0H23.4411L25.8055 7.16268H3.15241L1.99182 11.404H25.1582L19.0259 18.6598H22.971L30.8067 9.37987L27.6951 0Z" fill="black"/>
<path d="M21.6128 26.2632V27.4626H23.6001V27.8579H21.6128V29.0619H23.8477V29.4527H21.2086V25.8747H23.8477V26.2632H21.6128Z" fill="black"/>
<path d="M29.7392 25.8747V29.4527H29.2691L27.0592 26.4313V29.4527H26.6526V25.8747H27.1228L29.3327 28.8847V25.8747H29.7392Z" fill="black"/>
<path d="M33.1801 26.2632V27.4626H35.1697V27.8579H33.1801V29.0619H35.4059V29.4527H32.7758V25.8747H35.4059V26.2632H33.1801Z" fill="black"/>
<path d="M38.6265 29.4526H38.2222V25.8747H39.9347C40.2542 25.8588 40.5675 25.9671 40.8091 26.1768C40.9202 26.2805 41.0073 26.4072 41.0642 26.5481C41.1211 26.689 41.1464 26.8406 41.1385 26.9924C41.1532 27.1832 41.1073 27.3737 41.0074 27.5369C40.9075 27.7 40.7586 27.8275 40.582 27.9011C40.484 27.9466 40.3811 27.9809 40.2754 28.0033L41.2157 29.4481H40.7342L39.8689 28.0737H38.6265V29.4526ZM38.6265 27.6943H39.8643C40.0156 27.7117 40.1688 27.6877 40.3076 27.6249C40.4464 27.5621 40.5656 27.4628 40.6524 27.3377C40.7111 27.2324 40.7394 27.1128 40.7342 26.9924C40.7386 26.8914 40.7205 26.7907 40.6812 26.6976C40.642 26.6045 40.5825 26.5213 40.5071 26.454C40.331 26.3174 40.1119 26.2481 39.8893 26.2586H38.631L38.6265 27.6943Z" fill="black"/>
<path d="M44.8019 25.9747C45.0161 25.8787 45.2485 25.8299 45.4833 25.8316C45.6857 25.828 45.8876 25.8533 46.0829 25.9065C46.243 25.9532 46.3959 26.022 46.5371 26.111C46.8162 26.2867 47.0349 26.5435 47.164 26.847H46.7211C46.6155 26.6558 46.4581 26.4983 46.2668 26.3927C46.0655 26.2809 45.8384 26.2237 45.6082 26.2268C45.3939 26.2223 45.1809 26.2602 44.9813 26.3382C44.8153 26.4073 44.6665 26.512 44.5453 26.6448C44.3091 26.9331 44.18 27.2944 44.18 27.6671C44.18 28.0398 44.3091 28.4011 44.5453 28.6894C44.675 28.8277 44.8331 28.9365 45.0087 29.0082C45.1843 29.08 45.3733 29.113 45.5628 29.1051C45.8828 29.1115 46.1941 28.9999 46.4372 28.7916C46.5639 28.6858 46.6648 28.5523 46.7321 28.4016C46.7994 28.2508 46.8314 28.0866 46.8256 27.9215H45.5196V27.5535H47.2003V29.4572H46.8256V28.8234C46.6279 29.1296 46.3236 29.3515 45.9716 29.4458C45.7998 29.4866 45.6234 29.5049 45.4469 29.5004C45.222 29.499 44.9999 29.4502 44.7951 29.3573C44.5858 29.2661 44.3978 29.1322 44.2432 28.9642C43.9408 28.5988 43.7767 28.1386 43.7796 27.6642C43.7825 27.1899 43.9522 26.7317 44.2591 26.37C44.4107 26.2021 44.5956 26.0675 44.8019 25.9747Z" fill="black"/>
<path d="M50.2324 25.0205H50.8093L50.2324 25.5885H49.903L50.2324 25.0205ZM50.4708 29.4526H50.0643V25.8747H50.4708V29.4526Z" fill="black"/>
<path d="M56.6281 29.4527H56.1739L55.7355 28.4145H53.964L53.5257 29.4527H53.0714L54.5886 25.8747H55.0973L56.6281 29.4527ZM55.5856 28.0419L54.8566 26.295L54.1275 28.0419H55.5856Z" fill="black"/>
<path d="M65.345 29.9547C65.5841 29.9526 65.8148 29.8666 65.9969 29.7116L66.224 30.0024C65.9754 30.2009 65.6653 30.3062 65.3473 30.3C65.0822 30.2984 64.8233 30.2194 64.6023 30.0728C64.375 29.9297 64.1931 29.7248 64.0777 29.4822C63.8411 29.48 63.6075 29.4295 63.3911 29.3338C63.1748 29.2381 62.9802 29.0992 62.8194 28.9256C62.6597 28.756 62.535 28.5565 62.4524 28.3386C62.3698 28.1207 62.3309 27.8887 62.3379 27.6557C62.3311 27.417 62.372 27.1793 62.4582 26.9566C62.5444 26.7338 62.6741 26.5305 62.8399 26.3586C63.1911 26.0161 63.6622 25.8245 64.1526 25.8245C64.6431 25.8245 65.1142 26.0161 65.4654 26.3586C65.7729 26.6937 65.9512 27.1273 65.9682 27.5818C65.9853 28.0363 65.8401 28.4821 65.5585 28.8393C65.2932 29.1731 64.9107 29.3933 64.4888 29.4549C64.5433 29.561 64.6186 29.6549 64.7104 29.731C64.8021 29.8071 64.9083 29.8639 65.0225 29.8979C65.1261 29.9348 65.2351 29.954 65.345 29.9547ZM64.1436 29.1005C64.3354 29.108 64.5266 29.0748 64.7047 29.0031C64.8827 28.9315 65.0437 28.823 65.177 28.6848C65.4207 28.4 65.5547 28.0375 65.5547 27.6626C65.5547 27.2877 65.4207 26.9251 65.177 26.6403C64.9003 26.372 64.53 26.222 64.1447 26.222C63.7593 26.222 63.3891 26.372 63.1124 26.6403C62.8687 26.9251 62.7347 27.2877 62.7347 27.6626C62.7347 28.0375 62.8687 28.4 63.1124 28.6848C63.2454 28.8227 63.406 28.931 63.5837 29.0026C63.7613 29.0743 63.9521 29.1076 64.1436 29.1005V29.1005Z" fill="black"/>
<path d="M71.7703 25.8747V27.9193C71.7786 28.1273 71.7453 28.335 71.6723 28.53C71.5994 28.725 71.4883 28.9036 71.3455 29.0551C71.0499 29.337 70.657 29.4943 70.2485 29.4943C69.84 29.4943 69.4472 29.337 69.1515 29.0551C69.0096 28.9031 68.8992 28.7244 68.8267 28.5295C68.7542 28.3345 68.721 28.1271 68.7291 27.9193V25.8747H69.1334V27.9193C69.1235 28.0865 69.1491 28.254 69.2086 28.4106C69.2681 28.5672 69.3601 28.7095 69.4786 28.8279C69.6891 29.0158 69.9644 29.1144 70.2463 29.1028C70.5294 29.114 70.806 29.0155 71.0185 28.8279C71.1384 28.7105 71.2316 28.5684 71.2916 28.4116C71.3515 28.2548 71.3769 28.0868 71.366 27.9193V25.8747H71.7703Z" fill="black"/>
<path d="M75.1771 26.2632V27.4626H77.1667V27.8579H75.1771V29.0619H77.4029V29.4527H74.7615V25.8747H77.3915V26.2632H75.1771Z" fill="black"/>
<path d="M86.0584 26.2632H84.8116V29.4436H84.405V26.2632H83.1581V25.8747H86.0584V26.2632Z" fill="black"/>
<path d="M89.1382 29.4527H88.7339V25.8747H90.4464C90.766 25.8586 91.0794 25.9669 91.3208 26.1769C91.432 26.2805 91.519 26.4072 91.5759 26.5481C91.6328 26.689 91.6582 26.8407 91.6502 26.9924C91.6649 27.1832 91.619 27.3737 91.5191 27.5369C91.4192 27.7001 91.2703 27.8275 91.0937 27.9011C90.9957 27.9467 90.8929 27.981 90.7871 28.0033L91.7274 29.4481H91.2459L90.3806 28.0738H89.1382V29.4527ZM89.1382 27.6944H90.376C90.5274 27.7117 90.6805 27.6877 90.8193 27.6249C90.9581 27.5621 91.0773 27.4629 91.1641 27.3377C91.2228 27.2324 91.2511 27.1129 91.2459 26.9924C91.2503 26.8914 91.2322 26.7908 91.193 26.6976C91.1537 26.6045 91.0942 26.5213 91.0188 26.454C90.8434 26.3177 90.6251 26.2485 90.4033 26.2587H89.1427L89.1382 27.6944Z" fill="black"/>
<path d="M97.6326 29.4527H97.1783L96.7536 28.4145H94.9798L94.5437 29.4527H94.0895L95.618 25.8747H96.1245L97.6326 29.4527ZM96.5901 28.0419L95.861 26.295L95.1297 28.0419H96.5901Z" fill="black"/>
<path d="M103.34 25.8747V29.4527H102.863L100.653 26.4313V29.4527H100.247V25.8747H100.717L102.927 28.8847V25.8747H103.34Z" fill="black"/>
<path d="M106.779 26.4222C106.716 26.4744 106.668 26.5427 106.64 26.6198C106.617 26.6934 106.606 26.77 106.606 26.847C106.607 26.8901 106.616 26.9326 106.634 26.9717C106.652 27.0109 106.678 27.0458 106.711 27.0742C106.792 27.1489 106.887 27.2075 106.99 27.2468C107.118 27.2982 107.25 27.3399 107.385 27.3718L107.839 27.4808C107.994 27.5194 108.144 27.5626 108.294 27.6126C108.433 27.6562 108.566 27.7189 108.689 27.7989C108.806 27.8648 108.904 27.9612 108.971 28.078C109.038 28.1947 109.072 28.3275 109.07 28.4622C109.078 28.6115 109.048 28.7603 108.982 28.8946C108.917 29.0289 108.818 29.1443 108.696 29.23C108.385 29.4238 108.021 29.5167 107.655 29.4958C107.253 29.5204 106.853 29.4101 106.52 29.1823C106.401 29.0842 106.304 28.9624 106.236 28.8247C106.167 28.687 106.127 28.5365 106.12 28.3827H106.52C106.526 28.4989 106.563 28.6115 106.625 28.7097C106.687 28.8079 106.774 28.8885 106.876 28.9438C107.115 29.0656 107.381 29.1235 107.649 29.1119C108.33 29.1119 108.655 28.9006 108.655 28.4781C108.656 28.4105 108.64 28.3437 108.608 28.284C108.577 28.2244 108.53 28.1739 108.473 28.1373C108.333 28.0465 108.18 27.9775 108.019 27.9329C107.835 27.8784 107.64 27.8284 107.428 27.7807C107.227 27.7376 107.031 27.6776 106.84 27.6012C106.671 27.5345 106.516 27.4349 106.386 27.3082C106.324 27.2433 106.276 27.1666 106.245 27.0826C106.214 26.9987 106.2 26.9092 106.204 26.8198C106.201 26.683 106.23 26.5474 106.288 26.4236C106.347 26.2999 106.433 26.1913 106.54 26.1064C106.835 25.9011 107.192 25.804 107.551 25.8316C107.928 25.8074 108.302 25.9185 108.605 26.1451C108.713 26.229 108.802 26.3358 108.864 26.4579C108.927 26.5801 108.961 26.7145 108.966 26.8516H108.564C108.545 26.7046 108.479 26.5677 108.376 26.4615C108.273 26.3553 108.138 26.2857 107.992 26.2632C107.843 26.2238 107.691 26.2054 107.537 26.2087C107.384 26.2053 107.23 26.226 107.083 26.27C106.973 26.3006 106.869 26.3523 106.779 26.4222Z" fill="black"/>
<path d="M112.257 26.2632V27.5058H114.197V27.9011H112.257V29.4527H111.853V25.8747H114.435V26.2632H112.257Z" fill="black"/>
<path d="M118.753 25.8316C118.997 25.8234 119.24 25.8668 119.466 25.9587C119.692 26.0507 119.896 26.1893 120.065 26.3654C120.388 26.7202 120.567 27.1827 120.567 27.6626C120.567 28.1424 120.388 28.605 120.065 28.9597C119.715 29.3032 119.243 29.4956 118.753 29.4956C118.262 29.4956 117.79 29.3032 117.44 28.9597C117.117 28.605 116.938 28.1424 116.938 27.6626C116.938 27.1827 117.117 26.7202 117.44 26.3654C117.609 26.189 117.813 26.0503 118.039 25.9583C118.265 25.8663 118.508 25.8231 118.753 25.8316ZM118.753 29.1006C118.944 29.1076 119.135 29.0743 119.312 29.0026C119.49 28.931 119.651 28.8227 119.784 28.6848C120.029 28.4009 120.164 28.038 120.164 27.6626C120.164 27.2871 120.029 26.9243 119.784 26.6403C119.507 26.372 119.137 26.222 118.751 26.222C118.366 26.222 117.996 26.372 117.719 26.6403C117.475 26.9251 117.341 27.2877 117.341 27.6626C117.341 28.0375 117.475 28.4 117.719 28.6848C117.852 28.823 118.013 28.9315 118.191 29.0031C118.37 29.0748 118.561 29.108 118.753 29.1006V29.1006Z" fill="black"/>
<path d="M123.781 29.4526H123.374V25.8747H125.087C125.407 25.859 125.721 25.9672 125.964 26.1768C126.074 26.2808 126.161 26.4075 126.218 26.5484C126.275 26.6892 126.3 26.8407 126.293 26.9924C126.308 27.1832 126.262 27.3737 126.162 27.5369C126.062 27.7 125.913 27.8275 125.736 27.9011C125.638 27.947 125.534 27.9813 125.428 28.0033L126.368 29.4481H125.886L125.023 28.0737H123.781V29.4526ZM123.781 27.6943H125.017C125.168 27.7114 125.322 27.6872 125.461 27.6245C125.6 27.5617 125.719 27.4627 125.807 27.3377C125.879 27.1933 125.903 27.0298 125.875 26.871C125.848 26.7121 125.771 26.566 125.655 26.454C125.48 26.3173 125.261 26.248 125.039 26.2586H123.781V27.6943Z" fill="black"/>
<path d="M132.639 25.8747V29.4527H132.234V26.4994L130.91 28.201L129.566 26.4994V29.4527H129.159V25.8747H129.629L130.91 27.5717L132.169 25.8747H132.639Z" fill="black"/>
<path d="M138.791 29.4527H138.337L137.899 28.4145H136.127L135.689 29.4527H135.235L136.752 25.8747H137.261L138.791 29.4527ZM137.749 28.0419L137.02 26.295L136.291 28.0419H137.749Z" fill="black"/>
</g>
<defs>
<clipPath id="clip0">
<rect width="160" height="30.3" fill="white"/>
</clipPath>
</defs>
</svg>
