<svg width="60" height="48" viewBox="0 0 60 48" fill="none" xmlns="http://www.w3.org/2000/svg">
<g clip-path="url(#clip0)">
<path d="M30 45.4115C14.5895 45.4115 2.05066 35.6651 2.05066 23.6841C2.05066 11.7031 14.5895 1.95856 30 1.95856C45.4105 1.95856 57.9493 11.7049 57.9493 23.6841C57.9493 35.6632 45.4123 45.4115 30 45.4115ZM30 2.50517C14.8927 2.50517 2.60354 12.0051 2.60354 23.6841C2.60354 35.3631 14.8927 44.8649 30 44.8649C45.1072 44.8649 57.3983 35.3631 57.3983 23.6841C57.3983 12.0051 45.1072 2.50517 30 2.50517V2.50517Z" fill="black"/>
<path d="M28.5133 10.1448C28.2091 9.96644 27.8635 9.87123 27.5111 9.86868C27.1981 9.87243 26.8899 9.94584 26.6087 10.0836L26.4423 10.1651C24.4508 11.149 23.0251 11.716 22.2041 11.8457C21.7863 11.9169 21.3632 11.9529 20.9393 11.9532C18.7426 11.9532 16.25 10.9804 13.5429 9.07192L13.3765 8.94777L13.2748 8.91813C13.2227 8.90542 13.1693 8.89919 13.1158 8.8996C13.0436 8.89804 12.9718 8.91127 12.9049 8.93847C12.8379 8.96567 12.7773 9.00627 12.7265 9.05779C12.6758 9.10931 12.6361 9.17066 12.6099 9.23808C12.5837 9.30551 12.5714 9.37759 12.574 9.44992C12.5754 9.48797 12.5803 9.52581 12.5888 9.56295C12.6054 9.65559 12.7311 10.3449 12.7552 10.4894L12.7977 10.7118L13.0048 10.8507C14.0237 11.5104 17.5758 13.6486 20.6176 13.6598C22.0377 13.6598 23.5669 13.3207 25.1646 12.6518C25.8311 12.3644 26.48 12.0377 27.108 11.6734C27.1856 11.629 27.2633 11.5845 27.2781 11.5789H27.2947C27.3355 11.5664 27.3779 11.5602 27.4205 11.5604C27.6535 11.5604 27.8051 11.6401 27.892 11.9625C27.9044 12.0109 27.9106 12.0607 27.9105 12.1107C27.9101 12.1789 27.8953 12.2462 27.8669 12.3082C27.8385 12.3702 27.7973 12.4254 27.7459 12.4702C27.7045 12.5111 27.6586 12.5472 27.6091 12.5777C27.6015 12.5838 27.5927 12.5882 27.5832 12.5906C27.2578 12.6944 25.7433 13.1465 22.8883 13.7617C19.7004 14.4398 18.027 14.8234 18.0159 14.8234C17.6068 14.9134 17.2148 15.0686 16.8547 15.2829C16.4795 15.4873 16.1657 15.7885 15.9459 16.1554C15.7261 16.5223 15.6083 16.9414 15.6047 17.3693V21.9016L17.304 22.7595V17.6343C17.304 17.4712 17.341 16.9783 18.1971 16.6467C18.7001 16.4503 20.5584 15.9704 23.297 15.3255C25.1812 14.8827 26.9434 14.4843 27.439 14.3731L27.5758 14.3398C28.5762 14.0433 29.2141 13.4671 29.3805 12.6981C29.4283 12.4539 29.4531 12.2058 29.4545 11.9569C29.4619 11.1342 29.1272 10.4876 28.5133 10.1448Z" fill="black"/>
<path d="M23.3339 18.3439H23.2988C21.0614 18.3439 19.7319 19.339 19.7115 20.5026C19.7115 21.1956 20.2219 21.846 21.1668 22.2295C21.8144 22.4841 22.5052 22.6099 23.2008 22.6001C24.4058 22.5741 25.5944 22.3149 26.7012 21.8367L26.8214 21.7811V20.8194L26.4867 21.1233L26.4682 21.1363C26.3461 21.2234 25.6546 21.6644 23.9589 21.6644C23.7426 21.6644 23.5096 21.6551 23.26 21.6403C21.5699 21.5106 21.2555 21.0288 21.1871 20.7787H26.9453V20.5786V20.5489C26.9286 20.0928 26.7426 19.6594 26.4238 19.3334C25.9412 18.8146 25.0222 18.3588 23.3339 18.3439ZM21.3276 20.0486C21.5495 19.7911 22.0525 19.4353 23.1768 19.4297C24.1013 19.4297 24.6117 19.6743 24.9001 19.9022C24.9564 19.9474 25.0095 19.9963 25.0592 20.0486H21.3276Z" fill="black"/>
<path d="M43.4856 19.3353C42.9993 18.8146 42.0784 18.3588 40.3902 18.3514H40.3532C38.1158 18.3514 36.7863 19.3464 36.7641 20.51C36.7641 21.203 37.2781 21.8534 38.2193 22.237C38.867 22.4913 39.5578 22.6171 40.2533 22.6075C41.4598 22.5825 42.6499 22.3226 43.7574 21.8423L43.8757 21.7886V20.8269L43.5447 21.1234L43.5244 21.1363C43.4024 21.2234 42.7108 21.6644 41.0152 21.6644C40.8007 21.6644 40.5677 21.6551 40.3181 21.6403C38.6261 21.5106 38.3099 21.0289 38.2434 20.7787H44.0089V20.5786V20.5489C43.9916 20.0932 43.8049 19.6603 43.4856 19.3353V19.3353ZM38.382 20.0561C38.6095 19.7985 39.1106 19.4428 40.2311 19.4372C41.1557 19.4372 41.6624 19.6818 41.9508 19.9097C42.0066 19.9553 42.0597 20.0042 42.1098 20.0561H38.382Z" fill="black"/>
<path d="M34.0237 18.444C33.9016 18.4347 33.7833 18.431 33.6668 18.431C32.8245 18.4205 32.0001 18.6745 31.3092 19.1574V18.7868C31.3094 18.7495 31.3023 18.7125 31.2881 18.678C31.274 18.6435 31.2532 18.6122 31.2269 18.5858C31.2005 18.5594 31.1693 18.5385 31.1348 18.5244C31.1004 18.5102 31.0635 18.5031 31.0263 18.5033H30.1905C30.1534 18.5033 30.1167 18.5107 30.0825 18.5249C30.0483 18.5392 30.0172 18.5601 29.9911 18.5865C29.9649 18.6128 29.9443 18.6441 29.9303 18.6785C29.9162 18.7128 29.9092 18.7497 29.9094 18.7868V22.0294C29.9099 22.1046 29.9398 22.1767 29.9927 22.23C30.0456 22.2834 30.1173 22.3138 30.1923 22.3148H31.0281C31.0654 22.3148 31.1024 22.3074 31.1368 22.293C31.1713 22.2787 31.2025 22.2576 31.2288 22.2311C31.2551 22.2046 31.2759 22.1731 31.29 22.1385C31.3041 22.1039 31.3113 22.0668 31.311 22.0294V20.0505C31.6235 19.6484 32.0951 19.528 32.5758 19.528C32.998 19.5402 33.416 19.6145 33.8166 19.7485C33.8449 19.751 33.8733 19.751 33.9016 19.7485C33.9518 19.7484 34.0012 19.7365 34.0459 19.7136C34.0906 19.6907 34.1292 19.6576 34.1587 19.6169C34.1871 19.5805 34.2067 19.538 34.216 19.4928V19.4742V19.4576C34.216 19.4576 34.2289 18.9869 34.2474 18.8405C34.2537 18.8101 34.2568 18.779 34.2567 18.7479C34.2606 18.6648 34.2344 18.5832 34.1827 18.5181C34.1405 18.4748 34.0839 18.4485 34.0237 18.444V18.444Z" fill="black"/>
<path d="M27.6516 15.711C27.5554 15.7115 27.4612 15.7391 27.3798 15.7907C27.2887 15.8487 27.2132 15.9282 27.1598 16.0223C27.1064 16.1076 27.0759 16.2052 27.071 16.3058C27.0739 16.3738 27.0993 16.439 27.1431 16.4911C27.1685 16.5214 27.2006 16.5452 27.2369 16.5607C27.2733 16.5762 27.3127 16.5828 27.3521 16.58C27.4348 16.573 27.5154 16.5495 27.589 16.511C27.6627 16.4726 27.728 16.4198 27.7811 16.3558L27.7626 16.328C27.705 16.3751 27.643 16.4167 27.5777 16.4521C27.5358 16.4708 27.4904 16.4802 27.4445 16.4799C27.4176 16.4803 27.3908 16.4751 27.366 16.4646C27.3412 16.4541 27.3188 16.4385 27.3003 16.4188C27.2804 16.4009 27.2647 16.3788 27.2542 16.3542C27.2436 16.3295 27.2386 16.3029 27.2393 16.2761C27.2369 16.249 27.2369 16.2217 27.2393 16.1946C27.3412 16.187 27.4417 16.1671 27.5388 16.1353C27.6316 16.1059 27.7155 16.0536 27.7829 15.9834C27.822 15.9423 27.8444 15.8881 27.8458 15.8314C27.8457 15.8125 27.8413 15.7938 27.8329 15.7768C27.8246 15.7598 27.8126 15.7449 27.7977 15.7332C27.7526 15.7105 27.7014 15.7027 27.6516 15.711V15.711ZM27.6516 15.9852C27.6043 16.0402 27.5448 16.0834 27.4778 16.1112C27.4045 16.1408 27.3272 16.1595 27.2485 16.1668C27.2709 16.0516 27.3261 15.9454 27.4076 15.8611C27.4598 15.8012 27.5336 15.7645 27.6128 15.7592C27.6388 15.7568 27.6647 15.7648 27.6849 15.7814C27.6939 15.7899 27.7011 15.8003 27.7059 15.8118C27.7106 15.8233 27.7129 15.8356 27.7127 15.8481C27.7096 15.8993 27.6887 15.9479 27.6535 15.9852H27.6516Z" fill="black"/>
<path d="M29.0514 15.7109C28.9931 15.7108 28.9359 15.7275 28.8868 15.7591C28.816 15.805 28.7534 15.8626 28.7019 15.9296L28.7666 15.7109L28.4412 15.7591V15.7943H28.5189C28.5348 15.7928 28.5506 15.7975 28.5632 15.8073C28.5685 15.813 28.5726 15.8197 28.5752 15.827C28.5777 15.8344 28.5787 15.8422 28.578 15.8499C28.5737 15.8827 28.5663 15.9149 28.5558 15.9463L28.3155 16.7819C28.3068 16.8364 28.2838 16.8875 28.2489 16.9302C28.2137 16.9527 28.1723 16.9637 28.1306 16.9617L28.1213 16.9969H28.5688V16.9617C28.5358 16.9642 28.5027 16.961 28.4708 16.9524C28.457 16.9491 28.4446 16.9412 28.4357 16.9302C28.4282 16.92 28.4243 16.9076 28.4246 16.895C28.4274 16.8627 28.4342 16.831 28.4449 16.8005L28.5133 16.5522C28.5401 16.5671 28.5679 16.5801 28.5965 16.5911C28.6244 16.598 28.6529 16.6017 28.6816 16.6022C28.7599 16.5999 28.8366 16.579 28.9054 16.5413C28.9741 16.5036 29.033 16.4502 29.0773 16.3854C29.1816 16.2665 29.2423 16.1155 29.2493 15.9574C29.252 15.9238 29.2478 15.8901 29.237 15.8582C29.2262 15.8263 29.2089 15.797 29.1864 15.7721C29.1693 15.7531 29.1485 15.7379 29.1253 15.7274C29.1021 15.7169 29.0769 15.7113 29.0514 15.7109V15.7109ZM29.0625 16.139C29.0456 16.1977 29.022 16.2543 28.9922 16.3076C28.9663 16.3526 28.9366 16.3954 28.9035 16.4354C28.8756 16.4677 28.8417 16.4941 28.8036 16.5133C28.7731 16.5324 28.7379 16.5427 28.7019 16.5429C28.6719 16.5438 28.642 16.5379 28.6145 16.5258C28.5869 16.5136 28.5625 16.4954 28.5429 16.4725L28.628 16.1871C28.6565 16.0858 28.7063 15.9916 28.774 15.9111C28.7972 15.8776 28.8274 15.8496 28.8626 15.8291C28.8977 15.8086 28.9369 15.7961 28.9774 15.7925C28.9932 15.7927 29.0087 15.7965 29.0227 15.8036C29.0368 15.8107 29.0491 15.8208 29.0588 15.8332C29.0833 15.8671 29.0957 15.9082 29.0939 15.95C29.0934 16.0142 29.0828 16.078 29.0625 16.139V16.139Z" fill="black"/>
<path d="M30.3809 15.7109C30.2885 15.7136 30.1984 15.7411 30.1202 15.7906C30.031 15.8461 29.9572 15.9232 29.9057 16.0148C29.8523 16.1023 29.8247 16.2032 29.8262 16.3057C29.8241 16.3452 29.8303 16.3847 29.8442 16.4217C29.8582 16.4587 29.8797 16.4924 29.9073 16.5206C29.935 16.5488 29.9682 16.571 30.0048 16.5857C30.0415 16.6003 30.0808 16.6072 30.1202 16.6059C30.2136 16.6023 30.3043 16.5735 30.3828 16.5225C30.4688 16.4688 30.5401 16.3944 30.5902 16.3061C30.6402 16.2177 30.6675 16.1182 30.6694 16.0167C30.6717 15.9778 30.6659 15.9388 30.6524 15.9022C30.6388 15.8657 30.6178 15.8324 30.5906 15.8045C30.5635 15.7766 30.5308 15.7547 30.4947 15.7402C30.4586 15.7256 30.4198 15.7188 30.3809 15.7202V15.7109ZM30.3939 16.3483C30.3162 16.4799 30.2312 16.5466 30.1424 16.5466C30.1209 16.5475 30.0995 16.5437 30.0797 16.5353C30.0599 16.527 30.0422 16.5144 30.0278 16.4984C30.0108 16.4794 29.9979 16.4571 29.99 16.4329C29.982 16.4086 29.9791 16.383 29.9815 16.3576C29.985 16.2175 30.0251 16.0807 30.098 15.9611C30.1757 15.8258 30.2626 15.7591 30.3551 15.7591C30.3761 15.7581 30.3971 15.7617 30.4166 15.7697C30.4361 15.7778 30.4536 15.7899 30.4679 15.8054C30.4966 15.8424 30.5117 15.8883 30.5104 15.9351C30.5089 16.0808 30.4687 16.2234 30.3939 16.3483V16.3483Z" fill="black"/>
<path d="M31.8047 15.7499C31.7824 15.748 31.7605 15.7424 31.74 15.7332L31.6771 15.7128C31.6587 15.7107 31.6401 15.7107 31.6217 15.7128C31.5583 15.7103 31.4965 15.7329 31.4497 15.7758C31.4279 15.7954 31.4105 15.8194 31.3987 15.8462C31.3869 15.8731 31.381 15.9021 31.3813 15.9315C31.3831 15.966 31.3912 15.9999 31.4053 16.0315C31.438 16.0862 31.4758 16.1377 31.5181 16.1853C31.5605 16.2337 31.5977 16.2865 31.6291 16.3428C31.6385 16.3651 31.6436 16.389 31.6439 16.4132C31.6442 16.4321 31.6404 16.4509 31.6327 16.4682C31.6251 16.4855 31.6137 16.5009 31.5995 16.5133C31.5846 16.5276 31.5668 16.5386 31.5474 16.5456C31.528 16.5526 31.5073 16.5555 31.4867 16.554C31.4587 16.5559 31.4307 16.5513 31.4048 16.5407C31.3788 16.5302 31.3556 16.5138 31.3369 16.4929C31.295 16.4328 31.2742 16.3605 31.2777 16.2872H31.25L31.1908 16.5985H31.2278C31.2324 16.5855 31.2409 16.5742 31.2522 16.5663C31.2634 16.5583 31.2769 16.554 31.2907 16.554C31.3079 16.5547 31.3248 16.5585 31.3406 16.5652C31.3906 16.5856 31.4438 16.5969 31.4978 16.5985C31.5748 16.6005 31.6497 16.5726 31.7067 16.5207C31.7332 16.4978 31.7542 16.4693 31.7683 16.4373C31.7824 16.4052 31.7891 16.3704 31.7881 16.3354C31.7871 16.2902 31.7758 16.2458 31.7548 16.2057C31.7078 16.1333 31.654 16.0657 31.5939 16.0037C31.5712 15.9791 31.5507 15.9525 31.5329 15.9241C31.5245 15.9047 31.5195 15.884 31.5181 15.8629C31.5178 15.8479 31.521 15.8331 31.5274 15.8196C31.5339 15.8061 31.5433 15.7943 31.5551 15.7851C31.58 15.763 31.6125 15.7517 31.6457 15.7536C31.6695 15.7527 31.6932 15.7572 31.715 15.7669C31.7367 15.7765 31.7561 15.791 31.7715 15.8092C31.8081 15.8638 31.8269 15.9286 31.8251 15.9945H31.8602L31.9175 15.7036H31.8805C31.8744 15.7183 31.8637 15.7307 31.8501 15.739C31.8365 15.7473 31.8206 15.7511 31.8047 15.7499V15.7499Z" fill="black"/>
<path d="M32.9253 15.4738H32.8846C32.8428 15.5438 32.7897 15.6064 32.7275 15.659C32.6767 15.7007 32.6173 15.7304 32.5536 15.7461L32.5444 15.7832H32.6905L32.5296 16.3391C32.5118 16.3898 32.5012 16.4428 32.4982 16.4966C32.4977 16.5089 32.4998 16.5211 32.5043 16.5326C32.5087 16.5441 32.5154 16.5545 32.524 16.5633C32.5429 16.5804 32.5671 16.5902 32.5925 16.5911C32.6318 16.5907 32.6701 16.5777 32.7016 16.554C32.768 16.5037 32.824 16.4407 32.8661 16.3687L32.8366 16.3428C32.8046 16.3845 32.77 16.4241 32.733 16.4614C32.7164 16.4789 32.6941 16.49 32.6701 16.4929C32.6647 16.4947 32.6589 16.4947 32.6535 16.4929C32.6503 16.4852 32.6503 16.4765 32.6535 16.4688C32.6575 16.4284 32.6662 16.3886 32.6794 16.3502L32.844 15.7943H32.99L33.0085 15.7332H32.8587L32.9253 15.4738Z" fill="black"/>
<path d="M34.0625 15.7109C33.9651 15.7115 33.8697 15.739 33.787 15.7906C33.6971 15.8502 33.6219 15.9294 33.567 16.0222C33.512 16.1094 33.482 16.21 33.48 16.3131C33.4823 16.381 33.507 16.4462 33.5503 16.4984C33.576 16.5288 33.6085 16.5526 33.6451 16.5681C33.6817 16.5835 33.7215 16.5901 33.7611 16.5874C33.9286 16.5724 34.0834 16.4919 34.192 16.3632L34.1698 16.3354C34.1124 16.3829 34.0505 16.4244 33.9849 16.4595C33.9428 16.4778 33.8975 16.4872 33.8517 16.4873C33.8248 16.4877 33.798 16.4825 33.7732 16.472C33.7483 16.4614 33.726 16.4458 33.7075 16.4262C33.688 16.408 33.6726 16.3859 33.6623 16.3613C33.6521 16.3367 33.6473 16.3101 33.6483 16.2835C33.6467 16.2563 33.6467 16.2291 33.6483 16.202C33.7508 16.1942 33.852 16.1743 33.9497 16.1427C34.0425 16.1132 34.1264 16.061 34.1938 15.9907C34.2329 15.9497 34.2553 15.8955 34.2567 15.8388C34.2527 15.804 34.2355 15.7721 34.2086 15.7498C34.1657 15.7207 34.1142 15.707 34.0625 15.7109V15.7109ZM34.0625 15.9852C34.0122 16.0418 33.9487 16.0851 33.8776 16.1112C33.8042 16.1405 33.727 16.1592 33.6483 16.1667C33.6714 16.0518 33.7266 15.9458 33.8073 15.861C33.8608 15.8017 33.9349 15.7652 34.0144 15.7591C34.0404 15.7573 34.0661 15.7653 34.0866 15.7813C34.0956 15.7898 34.1027 15.8001 34.1072 15.8117C34.1117 15.8233 34.1135 15.8357 34.1124 15.848C34.1114 15.898 34.0938 15.9462 34.0625 15.9852V15.9852Z" fill="black"/>
<path d="M35.466 15.7109C35.4182 15.7172 35.3739 15.7394 35.3402 15.7739C35.2181 15.8892 35.1157 16.0238 35.037 16.1723L35.1738 15.7109L34.8447 15.7628V15.7962H34.9187C34.9362 15.7953 34.9536 15.7999 34.9686 15.8091C34.9727 15.8129 34.976 15.8174 34.9783 15.8226C34.9805 15.8277 34.9816 15.8332 34.9815 15.8388C34.9788 15.8894 34.9688 15.9393 34.9519 15.987L34.7763 16.5781H34.9205L34.9519 16.4595C34.9651 16.4149 34.9805 16.371 34.9982 16.328C35.0142 16.2774 35.0372 16.2294 35.0666 16.1853C35.1181 16.1004 35.1756 16.0193 35.2385 15.9426C35.259 15.9145 35.284 15.89 35.3125 15.8703C35.3227 15.8669 35.3337 15.8669 35.3439 15.8703C35.3468 15.8688 35.35 15.8681 35.3532 15.8681C35.3564 15.8681 35.3596 15.8688 35.3624 15.8703C35.3624 15.8703 35.3624 15.8703 35.3624 15.8925C35.3641 15.9092 35.3713 15.9248 35.3828 15.937C35.393 15.9458 35.4062 15.9505 35.4198 15.95C35.4337 15.9508 35.4475 15.9471 35.4592 15.9394C35.4708 15.9317 35.4797 15.9205 35.4845 15.9073C35.5064 15.871 35.5179 15.8294 35.5178 15.7869C35.5187 15.7676 35.5128 15.7485 35.5011 15.7332C35.4919 15.7224 35.4797 15.7146 35.466 15.7109Z" fill="black"/>
<path d="M36.2999 15.5627H36.3332L36.6124 15.2347H36.3998L36.2999 15.5627Z" fill="black"/>
<path d="M36.409 15.7109L36.0799 15.7628V15.7999L36.1668 15.7888C36.1741 15.788 36.1815 15.7888 36.1885 15.791C36.1955 15.7932 36.202 15.7969 36.2075 15.8017C36.217 15.8112 36.2228 15.8236 36.2241 15.8369C36.2178 15.8819 36.2066 15.926 36.1908 15.9685L36.0688 16.3965C36.0556 16.4342 36.0475 16.4734 36.0448 16.5133C36.0442 16.524 36.0461 16.5348 36.0503 16.5447C36.0544 16.5546 36.0608 16.5635 36.0688 16.5707C36.0865 16.587 36.1095 16.5962 36.1335 16.5966C36.1797 16.5947 36.2236 16.5763 36.2574 16.5448C36.3162 16.498 36.3674 16.4424 36.409 16.3798L36.3776 16.3576C36.3453 16.4019 36.3081 16.4423 36.2667 16.478C36.2597 16.4841 36.2515 16.4885 36.2426 16.491C36.2354 16.4932 36.2277 16.4932 36.2204 16.491C36.2146 16.4829 36.2114 16.4732 36.2112 16.4632C36.215 16.4366 36.2218 16.4105 36.2315 16.3854L36.409 15.7109Z" fill="black"/>
<path d="M37.6904 16.3576L37.8754 15.711L37.7256 15.7313L37.6904 15.8407C37.683 15.8014 37.6621 15.766 37.6313 15.7406C37.6036 15.7199 37.5696 15.7094 37.5351 15.711C37.4602 15.7147 37.3884 15.7419 37.3299 15.7888C37.2322 15.8595 37.1524 15.9522 37.0969 16.0593C37.04 16.1567 37.0089 16.267 37.0063 16.3799C37.0031 16.4376 37.0215 16.4944 37.0581 16.5392C37.0725 16.5567 37.0906 16.5709 37.111 16.5808C37.1314 16.5907 37.1537 16.5961 37.1764 16.5967C37.2293 16.5952 37.2807 16.5784 37.3243 16.5485C37.4136 16.4868 37.4917 16.4103 37.5555 16.3224L37.5351 16.391C37.523 16.4307 37.5162 16.4718 37.5148 16.5133C37.5133 16.5244 37.5144 16.5357 37.5179 16.5464C37.5215 16.5571 37.5274 16.5668 37.5352 16.5748C37.5431 16.5828 37.5526 16.589 37.5632 16.5928C37.5737 16.5965 37.585 16.5979 37.5961 16.5967C37.6433 16.5918 37.6881 16.5739 37.7256 16.5448C37.7781 16.5012 37.8231 16.4492 37.8587 16.391L37.8273 16.3687C37.7964 16.413 37.7611 16.454 37.7219 16.491C37.7124 16.4987 37.7008 16.5032 37.6886 16.504C37.6849 16.5045 37.6812 16.5039 37.6779 16.5022C37.6746 16.5006 37.6719 16.498 37.6701 16.4947C37.6664 16.4916 37.6634 16.4876 37.6615 16.4831C37.6596 16.4786 37.6587 16.4737 37.659 16.4688C37.6574 16.4621 37.6574 16.4551 37.659 16.4484L37.6904 16.3576ZM37.4926 16.3317C37.4112 16.4355 37.3354 16.4855 37.267 16.4855C37.2525 16.4854 37.2382 16.4819 37.2253 16.4751C37.2124 16.4683 37.2013 16.4585 37.193 16.4466C37.1701 16.4178 37.1589 16.3814 37.1616 16.3447C37.165 16.2449 37.1896 16.147 37.2337 16.0575C37.2732 15.9653 37.3326 15.883 37.4075 15.8166C37.4425 15.7837 37.4874 15.7635 37.5351 15.7591C37.5513 15.7583 37.5675 15.761 37.5825 15.7671C37.5975 15.7732 37.611 15.7825 37.622 15.7943C37.6467 15.8287 37.6579 15.8709 37.6535 15.9129C37.6493 16.0669 37.5925 16.2147 37.4926 16.3317V16.3317Z" fill="black"/>
<path d="M40.3217 15.2144C40.2707 15.2166 40.221 15.2319 40.1775 15.2588C40.1202 15.2912 40.0699 15.3347 40.0296 15.3867C39.9867 15.4407 39.9507 15.4998 39.9223 15.5627C39.9037 15.6036 39.8814 15.6426 39.8557 15.6794C39.8388 15.6972 39.8188 15.7117 39.7966 15.7221C39.7602 15.7304 39.7229 15.7335 39.6856 15.7313L39.6708 15.7943H39.8373L39.6708 16.441C39.632 16.5911 39.6117 16.68 39.6006 16.7041C39.5853 16.7561 39.5636 16.8059 39.5358 16.8523C39.5137 16.8844 39.4846 16.911 39.4508 16.9302C39.4259 16.9462 39.3972 16.9552 39.3676 16.9561C39.3586 16.9591 39.3489 16.9591 39.3398 16.9561C39.3383 16.9519 39.3383 16.9473 39.3398 16.9431C39.3398 16.9431 39.3398 16.932 39.3565 16.9228C39.3628 16.9179 39.3681 16.9117 39.3719 16.9047C39.3757 16.8977 39.378 16.89 39.3787 16.882C39.3783 16.8749 39.3763 16.8681 39.3728 16.8619C39.3692 16.8558 39.3643 16.8506 39.3583 16.8468C39.3534 16.841 39.3471 16.8364 39.34 16.8335C39.3329 16.8306 39.3253 16.8295 39.3177 16.8301C39.2955 16.8292 39.2738 16.8365 39.2566 16.8505C39.2489 16.8575 39.2427 16.866 39.2385 16.8756C39.2344 16.8852 39.2323 16.8956 39.2326 16.9061C39.2322 16.9182 39.2346 16.9302 39.2398 16.9412C39.2449 16.9521 39.2526 16.9617 39.2622 16.9691C39.2895 16.9907 39.3236 17.0019 39.3583 17.0006C39.4218 17.0006 39.4835 16.9798 39.534 16.9413C39.6289 16.8625 39.7026 16.7612 39.7485 16.6467C39.8089 16.5088 39.856 16.3655 39.889 16.2186L39.9944 15.8017H40.1257L40.1442 15.7387H40.0037C40.0518 15.5905 40.0813 15.496 40.098 15.459C40.1243 15.3982 40.1641 15.3443 40.2145 15.3015C40.2437 15.2761 40.2812 15.2622 40.3199 15.2625C40.332 15.2593 40.3447 15.2593 40.3569 15.2625C40.3594 15.2691 40.3594 15.2764 40.3569 15.2829C40.3564 15.2946 40.3518 15.3058 40.3439 15.3144C40.3378 15.3251 40.3346 15.3373 40.3347 15.3496C40.3345 15.3651 40.3397 15.3802 40.3495 15.3922C40.3636 15.405 40.3822 15.4117 40.4012 15.4108C40.4112 15.4108 40.4211 15.4088 40.4303 15.405C40.4395 15.4012 40.4478 15.3956 40.4549 15.3885C40.4699 15.3724 40.4785 15.3513 40.4789 15.3292C40.4782 15.3137 40.4738 15.2985 40.4661 15.285C40.4584 15.2714 40.4476 15.2599 40.4345 15.2514C40.402 15.227 40.3624 15.214 40.3217 15.2144Z" fill="black"/>
<path d="M41.0133 15.7109L40.686 15.7628V15.7999L40.7711 15.7888C40.7781 15.7882 40.7852 15.789 40.7918 15.7912C40.7985 15.7935 40.8047 15.797 40.8099 15.8017C40.815 15.8061 40.8191 15.8115 40.8219 15.8176C40.8248 15.8236 40.8264 15.8302 40.8266 15.8369C40.8212 15.8819 40.8107 15.926 40.7951 15.9685L40.6805 16.3965C40.6682 16.4344 40.6601 16.4736 40.6564 16.5133C40.6563 16.5241 40.6585 16.5349 40.663 16.5449C40.6675 16.5548 40.6741 16.5636 40.6823 16.5707C40.7 16.587 40.723 16.5962 40.747 16.5966C40.7927 16.5951 40.8362 16.5766 40.8691 16.5448C40.9294 16.4991 40.9813 16.4433 41.0226 16.3798L40.9874 16.3576C40.9574 16.4025 40.9213 16.4431 40.8802 16.478C40.8701 16.4862 40.8579 16.4914 40.8451 16.4929C40.8378 16.4947 40.8301 16.4947 40.8229 16.4929C40.8201 16.4838 40.8201 16.4741 40.8229 16.4651C40.8255 16.4384 40.8318 16.4123 40.8414 16.3873L41.0133 15.7109Z" fill="black"/>
<path d="M41.0004 15.3292C40.9877 15.3288 40.9752 15.3312 40.9637 15.3363C40.9521 15.3415 40.9419 15.3492 40.9338 15.3589C40.9245 15.3677 40.917 15.3783 40.912 15.3901C40.9069 15.4019 40.9042 15.4146 40.9042 15.4274C40.905 15.4527 40.9156 15.4766 40.9338 15.4941C40.952 15.5107 40.9757 15.5199 41.0004 15.5201C41.0127 15.5203 41.0249 15.5181 41.0363 15.5135C41.0477 15.509 41.0582 15.5022 41.0669 15.4936C41.0757 15.485 41.0827 15.4747 41.0875 15.4633C41.0922 15.4519 41.0947 15.4397 41.0947 15.4274C41.095 15.4147 41.0927 15.402 41.0879 15.3902C41.0832 15.3784 41.076 15.3678 41.0669 15.3589C41.0588 15.3492 41.0486 15.3415 41.0371 15.3363C41.0255 15.3312 41.013 15.3288 41.0004 15.3292V15.3292Z" fill="black"/>
<path d="M42.3225 16.4799C42.3143 16.4874 42.3039 16.4919 42.2929 16.4928C42.2875 16.4942 42.2817 16.4942 42.2763 16.4928C42.2734 16.4851 42.2734 16.4765 42.2763 16.4687C42.2816 16.4404 42.289 16.4126 42.2985 16.3854L42.4168 15.9833C42.4314 15.9339 42.4401 15.8828 42.4427 15.8313C42.4435 15.8162 42.4413 15.801 42.4362 15.7867C42.4312 15.7724 42.4233 15.7592 42.4131 15.748C42.4022 15.7379 42.3893 15.7301 42.3754 15.725C42.3614 15.7199 42.3466 15.7176 42.3317 15.7183C42.2625 15.7229 42.197 15.7518 42.1468 15.7998C42.0437 15.9057 41.9531 16.0233 41.8769 16.15L42.0008 15.7183L41.6735 15.7776V15.8091H41.7104H41.7511C41.7587 15.8089 41.7662 15.8102 41.7732 15.8131C41.7803 15.816 41.7866 15.8203 41.7918 15.8258C41.797 15.8305 41.8012 15.8362 41.804 15.8425C41.8069 15.8489 41.8084 15.8558 41.8084 15.8628C41.8025 15.9069 41.7926 15.9503 41.7789 15.9925L41.605 16.5725H41.7474L41.7955 16.415C41.8133 16.3504 41.8388 16.2882 41.8713 16.2297C41.9186 16.1416 41.9717 16.0568 42.0303 15.9759C42.0707 15.9208 42.1209 15.8737 42.1783 15.8369C42.1957 15.8214 42.2179 15.8123 42.2411 15.811C42.2467 15.811 42.2522 15.8121 42.2573 15.8144C42.2624 15.8166 42.2669 15.8199 42.2707 15.8239C42.2754 15.8277 42.279 15.8325 42.2813 15.838C42.2835 15.8435 42.2843 15.8495 42.2837 15.8554C42.2813 15.8932 42.2745 15.9305 42.2633 15.9666L42.1524 16.3483C42.1366 16.3996 42.1261 16.4524 42.1209 16.5058C42.12 16.5166 42.1214 16.5274 42.1249 16.5376C42.1284 16.5478 42.134 16.5572 42.1413 16.5651C42.1568 16.5797 42.1773 16.5877 42.1986 16.5873C42.2344 16.5842 42.2684 16.5706 42.2966 16.5484C42.3634 16.4974 42.4204 16.4346 42.4649 16.3631L42.4353 16.3427C42.4044 16.3936 42.3664 16.4397 42.3225 16.4799V16.4799Z" fill="black"/>
<path d="M43.7648 16.491C43.7552 16.4985 43.7436 16.503 43.7315 16.504C43.7315 16.504 43.7167 16.504 43.7149 16.4947C43.7105 16.492 43.707 16.4882 43.7048 16.4836C43.7025 16.479 43.7015 16.4739 43.7019 16.4688C43.7003 16.4621 43.7003 16.4551 43.7019 16.4484L43.7223 16.3632L43.9072 15.7165L43.7593 15.7369L43.7223 15.8462C43.7155 15.8071 43.6952 15.7717 43.665 15.7462C43.6367 15.7252 43.6021 15.7147 43.5669 15.7165C43.4922 15.721 43.4207 15.7482 43.3617 15.7943C43.2656 15.8658 43.1872 15.9583 43.1324 16.0649C43.0751 16.1622 43.0433 16.2725 43.04 16.3854C43.036 16.4432 43.0546 16.5004 43.0917 16.5448C43.1059 16.5621 43.1237 16.5762 43.1438 16.5861C43.1639 16.596 43.1858 16.6015 43.2082 16.6022C43.2618 16.6011 43.3138 16.5843 43.358 16.554C43.447 16.4927 43.5246 16.4162 43.5873 16.328L43.5669 16.3965C43.5557 16.4364 43.5489 16.4774 43.5466 16.5188C43.545 16.5408 43.5516 16.5626 43.5651 16.58C43.5735 16.5878 43.5834 16.5938 43.5942 16.5977C43.605 16.6015 43.6165 16.603 43.628 16.6022C43.6753 16.598 43.7203 16.58 43.7574 16.5503C43.8105 16.5068 43.8561 16.4549 43.8924 16.3965L43.861 16.3743C43.8339 16.4171 43.8016 16.4563 43.7648 16.491V16.491ZM43.5281 16.3372C43.4468 16.441 43.3709 16.491 43.3025 16.491C43.2881 16.4905 43.2739 16.4868 43.2611 16.48C43.2483 16.4733 43.2372 16.4638 43.2286 16.4521C43.2064 16.4229 43.1953 16.3868 43.1971 16.3502C43.2002 16.2499 43.2261 16.1517 43.2729 16.063C43.3111 15.9701 43.3707 15.8876 43.4468 15.8221C43.4816 15.7881 43.5276 15.7677 43.5762 15.7647C43.5918 15.764 43.6074 15.7668 43.6218 15.7729C43.6361 15.779 43.649 15.7882 43.6594 15.7999C43.683 15.8347 43.6941 15.8765 43.6908 15.9185C43.6846 16.0706 43.6272 16.2162 43.5281 16.3317V16.3372Z" fill="black"/>
<path d="M54.804 27.6086C54.7947 27.5418 54.7874 27.4751 54.78 27.4103C54.7726 27.3454 54.767 27.2695 54.7578 27.1972H54.7448C54.722 27.2332 54.701 27.2703 54.682 27.3084C54.6579 27.351 54.6376 27.3899 54.6154 27.4325C54.5932 27.4751 54.571 27.5159 54.5488 27.5567C54.5266 27.5974 54.5063 27.6345 54.4878 27.6716L54.4379 27.7642C54.4263 27.7846 54.4158 27.8056 54.4064 27.8272C54.3473 27.7197 54.2899 27.6141 54.2363 27.5122L54.0773 27.1972H54.0588C54.0588 27.2584 54.0459 27.3214 54.0385 27.3825C54.0311 27.4436 54.0218 27.5178 54.0107 27.5863C53.9996 27.6549 53.9904 27.7234 53.9793 27.7938C53.9682 27.8643 53.959 27.9254 53.9497 27.9791H54.0292C54.0269 27.9403 54.0269 27.9013 54.0292 27.8624C54.0292 27.8161 54.0292 27.7661 54.044 27.7123C54.0588 27.6586 54.0533 27.6048 54.0606 27.5493C54.068 27.4937 54.0699 27.4436 54.0773 27.3955C54.1254 27.4955 54.1753 27.5937 54.2252 27.6901C54.2751 27.7864 54.3232 27.8754 54.3695 27.9773H54.3787C54.4268 27.8735 54.4748 27.779 54.5229 27.6827C54.571 27.5863 54.6246 27.4974 54.6783 27.3955C54.6912 27.4955 54.7023 27.5919 54.7097 27.6864C54.7171 27.7809 54.7282 27.8717 54.7356 27.9791H54.8428C54.8336 27.918 54.8243 27.8531 54.8169 27.7938C54.8095 27.7346 54.8095 27.6678 54.804 27.6086Z" fill="black"/>
<path d="M55.5381 27.9421C55.5177 27.9217 55.5011 27.8995 55.4808 27.8754L55.4197 27.7975L55.3569 27.7216L55.3051 27.653C55.2912 27.6371 55.2782 27.6204 55.2663 27.603C55.2916 27.5999 55.3164 27.5937 55.3402 27.5845C55.3675 27.5749 55.3931 27.5612 55.416 27.5437C55.4393 27.5271 55.4594 27.5064 55.4752 27.4825C55.4925 27.4534 55.5014 27.4201 55.5011 27.3862C55.5012 27.3566 55.4943 27.3273 55.4808 27.301C55.4688 27.2798 55.4524 27.2614 55.4327 27.2472C55.409 27.2319 55.3827 27.2212 55.355 27.2157C55.3243 27.2117 55.2933 27.2117 55.2626 27.2157H55.1979C55.1769 27.2176 55.1559 27.2176 55.135 27.2157H55.0684C55.0469 27.2137 55.0252 27.2137 55.0037 27.2157C55.0037 27.2676 55.0037 27.3158 55.0037 27.364C55.0037 27.4121 55.0037 27.4622 55.0037 27.5122V27.6975C55.0037 27.7475 55.0037 27.7975 55.0037 27.8476C55.0037 27.8976 55.0037 27.9421 55.0037 27.9884H55.1165C55.1165 27.9421 55.1165 27.8939 55.1165 27.8476C55.1165 27.8012 55.1165 27.7475 55.1165 27.6975V27.6085H55.1572C55.187 27.6363 55.2142 27.6666 55.2385 27.6993C55.2681 27.7345 55.2977 27.7716 55.3254 27.8087C55.3532 27.8457 55.3791 27.8791 55.4013 27.9106L55.453 27.981H55.588C55.5704 27.9693 55.5537 27.9563 55.5381 27.9421V27.9421ZM55.1831 27.5715H55.1405C55.1295 27.5734 55.1183 27.5734 55.1072 27.5715V27.5085C55.1072 27.4659 55.1072 27.4251 55.1072 27.3843C55.1072 27.3436 55.1072 27.301 55.1072 27.2602H55.1479H55.2163C55.236 27.2575 55.2559 27.2575 55.2755 27.2602C55.2958 27.2642 55.3149 27.2731 55.331 27.2861C55.3497 27.2964 55.3651 27.3119 55.3754 27.3306C55.3871 27.3528 55.3928 27.3777 55.392 27.4029C55.3921 27.4325 55.3852 27.4617 55.3717 27.4881C55.3582 27.51 55.3398 27.5284 55.318 27.5418C55.2962 27.5551 55.2725 27.5651 55.2478 27.5715C55.2263 27.5734 55.2046 27.574 55.1831 27.5733V27.5715Z" fill="black"/>
<path d="M54.7226 26.4764C54.4992 26.4764 54.2808 26.5428 54.095 26.6672C53.9092 26.7916 53.7644 26.9685 53.6788 27.1753C53.5933 27.3822 53.5709 27.6098 53.6145 27.8294C53.6581 28.0491 53.7657 28.2508 53.9237 28.4091C54.0818 28.5674 54.2831 28.6753 54.5022 28.719C54.7214 28.7626 54.9486 28.7402 55.155 28.6545C55.3614 28.5688 55.5379 28.4237 55.662 28.2376C55.7862 28.0514 55.8524 27.8325 55.8524 27.6086C55.8524 27.4599 55.8232 27.3127 55.7664 27.1753C55.7097 27.038 55.6264 26.9132 55.5215 26.808C55.4166 26.7029 55.2921 26.6195 55.155 26.5626C55.0179 26.5057 54.871 26.4764 54.7226 26.4764V26.4764ZM54.7226 28.6425C54.5182 28.6421 54.3185 28.581 54.1487 28.4669C53.9789 28.3528 53.8467 28.1908 53.7688 28.0014C53.6909 27.812 53.6708 27.6037 53.7111 27.4028C53.7513 27.202 53.8501 27.0176 53.9949 26.873C54.1397 26.7284 54.3241 26.6301 54.5247 26.5905C54.7252 26.5509 54.933 26.5718 55.1218 26.6505C55.3105 26.7292 55.4717 26.8623 55.585 27.0328C55.6982 27.2034 55.7585 27.4037 55.7581 27.6086C55.7581 27.7447 55.7313 27.8794 55.6792 28.0051C55.6272 28.1308 55.5508 28.2449 55.4546 28.341C55.3584 28.437 55.2442 28.5131 55.1186 28.5649C54.993 28.6166 54.8585 28.643 54.7226 28.6425V28.6425Z" fill="black"/>
<path d="M55.9486 24.4326L56.1335 24.2362H55.8617C55.7192 24.2479 55.5761 24.2256 55.4438 24.1714L55.3809 24.1454L55.3255 24.188C53.3709 25.6871 51.4423 26.6061 49.2955 27.073C49.2678 27.075 49.24 27.075 49.2123 27.073C49.149 27.0796 49.0851 27.0686 49.0277 27.0411C48.9703 27.0136 48.9216 26.9708 48.8869 26.9174C48.8684 26.8396 48.9645 26.7321 49.1457 26.6265C49.4652 26.4256 49.7738 26.2079 50.0703 25.9743C50.2349 25.8668 50.4253 25.726 50.4013 25.5518C50.3846 25.4443 50.294 25.3813 50.1905 25.335C50.4013 25.1849 50.4142 25.0385 50.3994 24.9551C50.3532 24.7291 50.0481 24.5846 49.6006 24.5846H49.3713C47.1524 24.5846 43.419 25.5611 42.9641 26.4375C42.169 26.7062 41.0503 27.0527 40.2866 27.0527C39.939 27.0527 39.706 26.9804 39.5932 26.8396C39.5493 26.776 39.5196 26.7037 39.5062 26.6276C39.4928 26.5515 39.496 26.4733 39.5155 26.3986C40.6222 25.907 41.6756 25.3029 42.659 24.5957C43.2016 24.2373 43.6065 23.7048 43.8073 23.0855V23.067V23.0466C43.814 22.979 43.8056 22.9106 43.7826 22.8466C43.7597 22.7826 43.7228 22.7245 43.6746 22.6766C43.6264 22.6287 43.5682 22.5921 43.5042 22.5696C43.4401 22.5471 43.3719 22.5391 43.3044 22.5463C43.2323 22.5469 43.1605 22.5543 43.0899 22.5686H43.0843C40.1165 23.6322 38.3451 24.9366 37.8144 26.4486C37.2097 26.695 36.8084 26.7988 36.4423 26.7988H36.3961C36.5348 26.6135 36.6587 26.4097 36.7974 26.1911L36.9138 26.0058C36.9542 25.9395 36.9795 25.8651 36.9878 25.7879C36.9961 25.7107 36.9873 25.6326 36.9619 25.5592C36.8857 25.4242 36.7627 25.322 36.6161 25.272C36.6612 25.2376 36.6963 25.1919 36.7181 25.1395C36.7398 25.0871 36.7474 25.0299 36.74 24.9737C36.7271 24.907 36.6624 24.7476 36.3462 24.7476C36.1465 24.7476 35.9505 24.7328 35.7618 24.7328C34.2215 24.6971 32.7004 25.0814 31.361 25.8446C31.1969 25.9237 31.0605 26.0506 30.9695 26.2085C30.8785 26.3665 30.837 26.5483 30.8506 26.7303C30.8807 26.9918 30.977 27.2413 31.1304 27.455C31.2838 27.6687 31.4892 27.8396 31.7271 27.9513C32.0857 28.0843 32.4653 28.1515 32.8476 28.1496C33.5725 28.1496 34.3787 27.9272 35.3809 27.4492C35.5122 27.4603 35.6435 27.4659 35.7785 27.4659C36.452 27.4546 37.1196 27.3377 37.757 27.1194C37.8994 27.7438 38.3802 28.0607 39.1846 28.0607C40.1405 28.0607 41.4534 27.6363 42.9494 27.112C43.167 27.5126 43.5297 27.8143 43.9627 27.955C44.2872 28.0329 44.6255 28.0329 44.9501 27.955C45.5827 27.7579 46.2048 27.5284 46.814 27.2676C46.9989 27.1898 47.1986 27.112 47.3983 27.0341C47.1302 27.3788 47.0414 27.666 47.1339 27.892C47.2263 28.1181 47.5444 28.2793 48.003 28.2793C48.2634 28.276 48.5223 28.2406 48.7741 28.1737C51.3258 27.4232 54.5359 25.9743 55.9486 24.4326ZM40.7304 24.5012C40.7304 24.5012 42.0914 23.558 42.6147 23.3894C42.1725 23.876 41.6646 24.2982 41.1058 24.6439C40.3366 25.0737 40.0462 25.2498 39.9667 25.2498C39.8872 25.2498 40.7304 24.5012 40.7304 24.5012V24.5012ZM34.0736 26.9804C33.6709 27.1309 33.2474 27.2178 32.8181 27.238C32.5592 27.238 32.3928 27.1768 32.3835 27.0786C32.3613 26.8322 33.0011 26.2837 34.3473 25.9483C34.1641 26.1113 34.0394 26.33 33.9922 26.5709C33.9757 26.7124 34.0034 26.8555 34.0718 26.9804H34.0736ZM47.2781 26.1077C46.4275 26.506 45.5511 26.9193 44.6653 27.073C44.6395 27.0749 44.6135 27.0749 44.5877 27.073C44.5266 27.073 44.4175 27.0619 44.4028 26.973C44.4011 26.9006 44.4217 26.8294 44.4617 26.7691C44.5017 26.7088 44.5592 26.6623 44.6265 26.6358C45.7156 26.0799 46.9065 25.8946 48.0603 25.7093C48.101 25.7093 48.1435 25.7 48.1823 25.6926C47.8735 25.826 47.5684 25.9706 47.2763 26.1077H47.2781Z" fill="black"/>
<path d="M29.6727 27.1916C29.743 27.0768 29.8169 26.9619 29.8891 26.8507C30.2003 26.3966 30.4713 25.9161 30.699 25.4147C30.8248 25.1059 30.8248 24.76 30.699 24.4512C30.4952 23.9683 30.1358 23.5677 29.6783 23.3135C29.5762 23.2035 29.4358 23.1371 29.2862 23.1282C29.1298 23.1391 28.9838 23.2109 28.8794 23.3283C26.9212 25.4147 24.9538 26.6636 22.868 27.1472C22.8069 27.1575 22.745 27.163 22.6831 27.1638C22.6523 27.1655 22.6214 27.1655 22.5906 27.1638V27.1638C22.5906 27.1435 22.6073 27.0768 22.733 26.9156C22.9786 26.7286 23.239 26.5619 23.5115 26.4171C23.6612 26.3282 23.8184 26.2318 23.9719 26.1429C24.0309 26.1211 24.0802 26.0788 24.1107 26.0237C24.1413 25.9687 24.151 25.9044 24.1383 25.8427C24.1245 25.7719 24.0953 25.705 24.0528 25.6467C24.0103 25.5884 23.9555 25.5402 23.8924 25.5055C24.0773 25.411 24.1587 25.2979 24.1494 25.172C24.1383 25.0015 23.9534 24.8718 23.652 24.8273C23.3921 24.7801 23.1284 24.7565 22.8643 24.7569C22.2219 24.7782 21.5836 24.867 20.9597 25.0219C20.6768 25.0774 20.3865 25.1405 20.0721 25.1923C19.3047 25.3776 16.7807 26.0576 16.5588 26.6006C16.5496 26.6257 16.5434 26.6518 16.5403 26.6784C15.0148 27.1416 13.7962 27.4473 12.8273 27.4473C12.4437 27.4583 12.0623 27.3869 11.7086 27.238C11.6624 27.2121 11.6239 27.1745 11.597 27.129C11.57 27.0834 11.5556 27.0315 11.5551 26.9786C11.5662 26.8803 11.666 26.8248 11.74 26.7933C11.9767 26.7025 12.2263 26.6283 12.4797 26.545C12.8291 26.4375 13.1879 26.3245 13.5669 26.1744C13.6502 26.2704 13.7535 26.3471 13.8694 26.3989C13.9853 26.4508 14.1112 26.4766 14.2382 26.4746C14.4206 26.4689 14.5999 26.4261 14.7652 26.3486C15.1079 26.1798 15.4385 25.9873 15.7544 25.7723C15.8691 25.6982 15.9893 25.6185 16.1132 25.5407C16.2371 25.4629 16.2223 25.3035 16.1853 25.1701C16.1453 25.0224 16.0567 24.8927 15.9339 24.8018C15.811 24.711 15.6611 24.6645 15.5085 24.6698C15.4716 24.6672 15.4345 24.6672 15.3976 24.6698C13.824 24.8792 11.6734 25.3183 10.3735 26.2096C8.61316 27.1472 6.65865 27.6438 4.40088 27.7234H4.28809V27.8346C4.28809 28.2497 4.49149 28.4016 4.65791 28.4553H4.67085H4.6838C4.99075 28.4813 5.294 28.4924 5.58986 28.4924C7.19516 28.5032 8.7799 28.1303 10.2126 27.4047C10.5825 28.0199 11.2204 28.3312 12.132 28.3312C13.2618 28.3312 14.6209 27.8568 15.6158 27.5048C15.9153 27.3992 16.1816 27.3065 16.4072 27.238C16.716 27.7271 17.0544 27.9977 17.4686 28.0847C17.5981 28.1436 17.7386 28.1746 17.8809 28.1755C18.0155 28.1707 18.1492 28.1527 18.2803 28.1218L18.4652 28.0866C19.2049 27.868 20.0222 27.5956 21.0189 27.2343C20.7785 27.5437 20.6916 27.8161 20.7766 28.0292C20.8376 28.1941 21.0263 28.3886 21.5644 28.3886C21.6198 28.3886 21.679 28.3886 21.7493 28.3886C25.649 28.0292 27.2485 26.469 28.7907 24.9589L28.8868 24.8662C28.9456 24.8106 29.0225 24.7784 29.1032 24.7754C29.1238 24.7738 29.1446 24.777 29.1638 24.7847C29.1831 24.7924 29.2003 24.8044 29.2141 24.8199C29.2252 24.8424 29.231 24.8671 29.231 24.8922C29.231 24.9172 29.2252 24.942 29.2141 24.9644C28.9996 25.7167 28.5503 26.3615 28.1546 26.9285C28.0215 27.1138 27.8957 27.2991 27.7848 27.4714C27.7311 27.5218 27.6908 27.5848 27.6676 27.6546C27.6443 27.7245 27.6389 27.7991 27.6516 27.8717C27.6776 27.9299 27.7181 27.9805 27.7693 28.0185C27.8205 28.0565 27.8806 28.0806 27.9438 28.0885C28.1311 28.1568 28.3273 28.1974 28.5263 28.2089C28.7049 28.2156 28.8814 28.25 29.0496 28.3108C29.3084 28.4053 29.4416 28.4868 29.473 28.5628C29.5044 28.6388 29.4601 28.7314 29.3898 28.8797C28.4153 31.0939 28.0196 33.3267 27.7607 35.2315C27.463 36.9325 27.6442 38.6279 27.8717 40.3585L27.9142 40.6809L28.0991 40.4067C28.392 39.9424 28.6285 39.4448 28.8036 38.9244V38.8966V38.8706C28.2082 33.638 29.6172 31.7091 30.8654 30.0081C31.3203 29.3688 31.7456 28.6277 31.0244 27.8865C30.6298 27.5589 30.1685 27.3217 29.6727 27.1916V27.1916ZM20.2126 26.5672C19.5987 26.8173 18.9645 27.0768 18.3303 27.2935C18.2997 27.3034 18.268 27.309 18.2359 27.3102C18.1902 27.3105 18.146 27.2938 18.1119 27.2633C18.0777 27.2329 18.0561 27.1908 18.051 27.1453C18.0381 27.049 18.0917 26.9174 18.2933 26.86C19.455 26.4295 20.6558 26.1136 21.8787 25.9168C21.3129 26.1262 20.7544 26.3467 20.2126 26.5672Z" fill="black"/>
<path d="M29.9981 47.37C13.4578 47.37 0 36.7453 0 23.6841C0 10.6228 13.4578 0 29.9981 0C46.5385 0 60 10.6247 60 23.6841C60 36.7435 46.5422 47.37 29.9981 47.37ZM29.9981 1.25443C14.1476 1.25443 1.25185 11.3158 1.25185 23.6841C1.25185 36.0523 14.1476 46.1174 29.9981 46.1174C45.8487 46.1174 58.75 36.0542 58.75 23.6841C58.75 11.314 45.858 1.25443 29.9981 1.25443V1.25443Z" fill="black"/>
</g>
<defs>
<clipPath id="clip0">
<rect width="60" height="47.37" fill="white"/>
</clipPath>
</defs>
</svg>
