<svg width="88" height="27" viewBox="0 0 88 27" fill="none" xmlns="http://www.w3.org/2000/svg">
<g clip-path="url(#clip0)">
<path d="M0 26.2615C0.366626 25.3858 0.733252 24.5094 1.09988 23.6324C4.2591 16.1383 7.41573 8.64288 10.5698 1.14617C10.6166 0.980339 10.7216 0.837374 10.8651 0.743899C11.0086 0.650424 11.1809 0.612813 11.3498 0.638069C13.0679 0.661702 14.7859 0.653824 16.504 0.638069C16.8024 0.638069 16.9799 0.701089 17.1066 1.01225C20.4869 9.34267 23.8716 17.6705 27.261 25.9956C27.2922 26.0705 27.3117 26.1512 27.3526 26.2812C27.1947 26.2969 27.0582 26.3245 26.9197 26.3245C24.952 26.3245 22.9843 26.3245 21.0166 26.3344C20.6539 26.3344 20.496 26.2103 20.3692 25.8755C19.8427 24.4792 19.2713 23.1007 18.7467 21.7024C18.6141 21.3479 18.4152 21.2711 18.0758 21.2711C15.0856 21.2829 12.1006 21.2829 9.1208 21.2711C8.98395 21.2487 8.84381 21.2802 8.72919 21.3589C8.61458 21.4377 8.53419 21.5578 8.50455 21.6945C7.99752 23.1164 7.46708 24.5304 6.92299 25.9365C6.86059 26.0961 6.64802 26.3068 6.50371 26.3087C4.38586 26.3304 2.26801 26.3087 0.150161 26.3087C0.111158 26.3206 0.0819058 26.2969 0 26.2615ZM13.7368 7.6431H13.6217L10.4313 16.3083H16.8667L13.7368 7.6431Z" fill="black"/>
<path d="M23.6786 0.647921H27.9435C28.6612 0.647921 29.3788 0.669584 30.0887 0.647921C30.4573 0.634135 30.6035 0.775929 30.7147 1.1186C32.449 6.50153 34.1918 11.8845 35.943 17.2674C36.1276 17.8818 36.3617 18.4799 36.6431 19.0556C36.8225 18.5081 37.0019 17.9606 37.1775 17.4092C38.9144 11.9462 40.6539 6.48906 42.396 1.03786C42.4643 0.823194 42.515 0.643982 42.8134 0.643982C44.8981 0.655798 46.9847 0.643982 49.0694 0.643982C49.148 0.65647 49.2256 0.674902 49.3015 0.699124C48.9114 1.70547 48.5448 2.69015 48.1684 3.67287C45.329 11.0829 42.4916 18.4937 39.6561 25.905C39.6227 26.041 39.5407 26.1597 39.4258 26.2382C39.311 26.3168 39.1714 26.3496 39.034 26.3304C37.2652 26.3147 35.4964 26.3186 33.7296 26.3304C33.6092 26.3506 33.4856 26.3247 33.3831 26.2577C33.2807 26.1906 33.2067 26.0873 33.1758 25.9681C30.0399 17.6179 26.8983 9.26652 23.7507 0.913785C23.7273 0.852735 23.7156 0.787746 23.6786 0.647921Z" fill="black"/>
<path d="M61.4411 23.3237L65.4252 19.5937L65.3277 19.4362L65.6885 19.7532C67.5957 21.4154 69.7838 22.1795 72.3014 21.7659C73.8615 21.5099 74.6903 20.4819 74.6591 18.997C74.6652 18.5967 74.5584 18.2028 74.3512 17.8615C74.1441 17.5201 73.845 17.2452 73.489 17.069C72.473 16.5412 71.3985 16.1198 70.3337 15.6904C69.2689 15.2611 68.1515 14.946 67.1023 14.4793C64.5496 13.3508 62.97 11.4603 62.8354 8.55347C62.6892 5.45763 63.8982 3.07075 66.5855 1.49723C70.7998 -0.970383 77.2118 -0.316554 80.8528 2.94275C80.947 3.00869 81.0461 3.06729 81.1492 3.11802L77.1241 6.87557C76.9291 6.7318 76.5839 6.44625 76.2114 6.20008C75.4525 5.66992 74.5868 5.31604 73.6765 5.16384C72.7661 5.01163 71.8336 5.06489 70.946 5.31977C69.7409 5.64668 69.0622 6.45215 69.0057 7.53531C68.9589 8.42546 69.3138 9.14822 70.0841 9.54603C70.9525 9.96742 71.8423 10.3421 72.7499 10.6686C74.0234 11.1629 75.3417 11.5548 76.5819 12.1259C79.0879 13.278 80.7728 15.1154 80.8723 18.0438C80.9795 21.0924 79.9459 23.6211 77.323 25.3305C75.2403 26.6795 72.904 27.1029 70.478 26.9907C68.0813 26.8843 65.7977 26.2974 63.7286 25.0213C62.97 24.5349 62.2699 23.9381 61.4411 23.3237Z" fill="black"/>
<path d="M51.8522 0.675491H57.9659V26.2969H51.8522V0.675491Z" fill="black"/>
<path d="M83.6278 2.82012C83.6278 2.53464 83.6837 2.25198 83.7922 1.98838C83.9007 1.72478 84.0598 1.48544 84.2602 1.28412C84.4606 1.08281 84.6985 0.923486 84.9601 0.815317C85.2217 0.707147 85.5019 0.652264 85.7846 0.653821C86.0728 0.649656 86.3589 0.703112 86.6265 0.811107C86.894 0.919102 87.1378 1.0795 87.3437 1.28307C87.5497 1.48663 87.7137 1.72933 87.8263 1.99719C87.9389 2.26504 87.998 2.55276 88 2.84376C87.9842 3.42168 87.7437 3.97007 87.3305 4.37031C86.9174 4.77056 86.3649 4.99047 85.7924 4.98249C85.5088 4.98721 85.2272 4.93468 84.964 4.82798C84.7008 4.72129 84.4613 4.56257 84.2597 4.36114C84.058 4.15971 83.8983 3.91964 83.7898 3.65502C83.6813 3.39039 83.6262 3.10654 83.6278 2.82012V2.82012ZM85.7729 0.963011C85.2846 0.971782 84.8192 1.17373 84.4767 1.52544C84.1343 1.87715 83.9422 2.35052 83.9418 2.84376C83.9446 3.08944 83.9953 3.33217 84.091 3.55807C84.1867 3.78397 84.3255 3.98862 84.4995 4.16033C84.6736 4.33205 84.8794 4.46747 85.1052 4.55887C85.3311 4.65026 85.5725 4.69583 85.8158 4.69299C86.0591 4.69014 86.2995 4.63894 86.5232 4.54229C86.7469 4.44564 86.9495 4.30544 87.1196 4.1297C87.2896 3.95396 87.4237 3.74612 87.5142 3.51804C87.6047 3.28996 87.6498 3.04612 87.647 2.80043C87.6373 2.30765 87.4358 1.83857 87.0861 1.49469C86.7365 1.15081 86.2668 0.959807 85.7788 0.963011H85.7729Z" fill="black"/>
<path d="M85.1703 1.64246H85.8782C86.3346 1.64246 86.6056 1.90635 86.6056 2.30022C86.6157 2.45756 86.5671 2.61299 86.4692 2.73586C86.3714 2.85872 86.2315 2.94009 86.0772 2.9639L86.6758 3.89738H86.3638L85.8061 2.98556H85.4297V3.89738H85.1703V1.64246ZM85.8782 2.75712C85.939 2.76295 86.0002 2.7554 86.0577 2.73499C86.1152 2.71459 86.1677 2.68181 86.2115 2.63893C86.2552 2.59605 86.2893 2.54408 86.3112 2.48662C86.3331 2.42916 86.3424 2.36758 86.3385 2.30613C86.3393 2.24515 86.3271 2.1847 86.3027 2.1289C86.2783 2.0731 86.2423 2.02324 86.1972 1.98271C86.1521 1.94217 86.0989 1.91192 86.0411 1.89399C85.9834 1.87605 85.9225 1.87087 85.8626 1.87878H85.4297V2.75712H85.8782Z" fill="black"/>
<path d="M86.7227 3.92099H86.3502L85.7924 3.01115H85.4551V3.92099H85.145V1.61684H85.8782C86.3365 1.61684 86.631 1.88467 86.631 2.30021C86.6417 2.45701 86.5955 2.61238 86.5012 2.73738C86.4068 2.86238 86.2707 2.94848 86.1181 2.97964L86.7227 3.92099ZM86.3775 3.87176H86.629L86.0343 2.95404H86.0713C86.2241 2.93335 86.3631 2.85371 86.4591 2.73182C86.5551 2.60993 86.6006 2.45525 86.5861 2.30021C86.5861 1.90633 86.317 1.66804 85.8841 1.66804H85.2015V3.87176H85.4102V2.95404H85.8256L86.3775 3.87176ZM85.8782 2.77876H85.4044V1.84922H85.8626C85.9258 1.84168 85.9898 1.84779 86.0505 1.86715C86.1111 1.88651 86.167 1.91868 86.2144 1.96152C86.2618 2.00435 86.2997 2.05688 86.3254 2.11562C86.3512 2.17435 86.3643 2.23794 86.3638 2.30218C86.3674 2.3669 86.3572 2.43164 86.3339 2.49203C86.3105 2.55243 86.2746 2.60706 86.2286 2.65224C86.1826 2.69741 86.1275 2.73209 86.067 2.75392C86.0066 2.77575 85.9422 2.78422 85.8782 2.77876V2.77876ZM85.4551 2.72756H85.8782C85.9358 2.73452 85.9942 2.72842 86.0492 2.70971C86.1041 2.69099 86.1543 2.66014 86.1959 2.61939C86.2376 2.57864 86.2697 2.52902 86.29 2.47415C86.3103 2.41927 86.3182 2.36052 86.3131 2.30218C86.3138 2.24489 86.3021 2.18814 86.2788 2.13589C86.2556 2.08364 86.2213 2.03714 86.1784 1.99964C86.1355 1.96214 86.0851 1.93454 86.0305 1.91876C85.976 1.90299 85.9187 1.89942 85.8626 1.9083H85.4551V2.72756Z" fill="black"/>
</g>
<defs>
<clipPath id="clip0">
<rect width="88" height="27" fill="white"/>
</clipPath>
</defs>
</svg>
