<svg width="114" height="31" viewBox="0 0 114 31" fill="none" xmlns="http://www.w3.org/2000/svg">
<g clip-path="url(#clip0)">
<path d="M15.8352 6.38827C15.8423 7.20266 15.6684 8.0084 15.326 8.747C14.9836 9.4856 14.4814 10.1385 13.8558 10.6583C15.9694 11.8015 17.2443 13.7516 17.2779 16.3742C17.345 20.5434 14.0907 23.3256 9.12542 23.3256H0.335536C0.290761 23.3284 0.24591 23.3216 0.203956 23.3057C0.162002 23.2898 0.123902 23.2651 0.0921811 23.2333C0.0604601 23.2015 0.0358419 23.1633 0.0199576 23.1213C0.00407341 23.0792 -0.00271422 23.0343 4.44832e-05 22.9894V0.369836C-0.00523905 0.319968 0.00067469 0.269548 0.0173525 0.222268C0.0340304 0.174988 0.06105 0.132046 0.0964322 0.0965861C0.131814 0.0611265 0.174663 0.0340478 0.22184 0.0173335C0.269017 0.000619137 0.319327 -0.00530754 0.369085 -1.24486e-05H8.35378C12.8158 -1.24486e-05 15.8017 2.5553 15.8352 6.38827ZM10.6938 6.85899C10.6938 5.6822 9.51962 4.90888 7.74151 4.90888L5.12468 4.9425V9.21257H8.08539C9.85511 9.21257 10.6938 8.30476 10.6938 6.85899ZM5.13307 13.0455V18.4251L8.89057 18.3915C10.8364 18.3915 12.1448 17.2484 12.1448 15.5336C12.1448 13.8861 10.9706 13.0455 9.19251 13.0455H5.13307Z" fill="black"/>
<path d="M26.3696 19.1228C27.4574 19.1514 28.5263 18.8335 29.4226 18.215C29.5158 18.1331 29.6342 18.0857 29.7581 18.0805C29.8022 18.0792 29.846 18.0876 29.8866 18.105C29.9271 18.1224 29.9634 18.1485 29.9929 18.1814L32.5762 20.9384C32.6455 21.002 32.6877 21.0899 32.6939 21.1839C32.7002 21.2778 32.67 21.3705 32.6097 21.4428C31.1 23.0567 28.8187 23.6619 26.0341 23.6955C20.9346 23.6955 17.5126 20.2996 17.5126 15.189C17.5126 10.112 20.9011 6.68246 25.967 6.68246C30.9323 6.68246 34.3879 9.54038 34.3879 16.702C34.3931 16.7519 34.3872 16.8023 34.3705 16.8496C34.3539 16.8968 34.3268 16.9398 34.2915 16.9752C34.2561 17.0107 34.2132 17.0378 34.1661 17.0545C34.1189 17.0712 34.0686 17.0771 34.0188 17.0718H22.8134C23.3502 18.2822 24.4573 19.1228 26.3696 19.1228ZM29.1877 13.6171C28.7851 12.2386 27.7787 11.2635 25.967 11.2635C24.1218 11.2635 23.0818 12.2386 22.6792 13.6171H29.1877Z" fill="black"/>
<path d="M34.6898 21.384L36.3337 18.0217C36.3567 17.9601 36.398 17.9069 36.4519 17.8694C36.5059 17.8318 36.57 17.8117 36.6357 17.8116C36.7098 17.8172 36.7816 17.8403 36.8453 17.8788C38.2209 18.5849 39.5964 19.1565 41.1396 19.1565C42.2132 19.1565 43.0268 18.8539 43.0268 18.4504C43.0268 17.7443 41.45 17.4417 39.437 16.8365C36.4008 15.9707 34.7234 14.4241 34.6227 11.978C34.4885 8.38043 37.8099 6.59844 41.5674 6.63206C44.4841 6.63206 46.8346 8.04421 47.3714 8.4813C47.4429 8.53368 47.4927 8.61061 47.5113 8.69742C47.5298 8.78424 47.5159 8.87486 47.472 8.95202L45.761 12.1462C45.7323 12.2005 45.6885 12.2453 45.6349 12.2751C45.5813 12.305 45.5203 12.3186 45.4591 12.3143C45.3792 12.3222 45.2987 12.3107 45.2242 12.2806C44.8216 12.1125 43.9158 11.5073 42.3055 11.2047C42.0066 11.1513 41.7031 11.1288 41.3996 11.1375C40.2925 11.1375 39.5544 11.5073 39.5544 11.8772C39.5544 12.4824 40.5609 12.8186 42.1713 13.1548C45.7946 13.9282 47.8327 15.1386 47.9417 18.1982C48.0424 21.5941 45.3249 23.6787 41.4416 23.6451C38.1873 23.6451 35.4006 22.3338 34.7988 21.8631C34.7584 21.8406 34.7231 21.8098 34.6953 21.7727C34.6675 21.7357 34.6478 21.6931 34.6375 21.6479C34.6273 21.6027 34.6266 21.5558 34.6356 21.5104C34.6446 21.4649 34.6631 21.4218 34.6898 21.384V21.384Z" fill="black"/>
<path d="M56.0921 18.5933C56.4947 18.5933 57.065 18.2571 57.2684 18.1898C57.3191 18.1624 57.3768 18.1508 57.4341 18.1562C57.4953 18.1516 57.5565 18.1651 57.6101 18.195C57.6638 18.2249 57.7076 18.2698 57.736 18.3243L58.8431 22.0228C58.9102 22.2581 58.8767 22.4935 58.7089 22.5607C58.2393 22.9306 56.8218 23.6367 55.1213 23.6367C51.8314 23.6367 50.1539 21.3503 50.1874 18.1898V11.5578H48.3422C48.2603 11.5618 48.18 11.5331 48.1191 11.4779C48.0582 11.4228 48.0216 11.3457 48.0172 11.2636V7.2961C48.0145 7.25123 48.0213 7.20628 48.0371 7.16423C48.053 7.12219 48.0776 7.084 48.1094 7.05221C48.1411 7.02042 48.1792 6.99575 48.2211 6.97983C48.2631 6.96391 48.3079 6.95711 48.3527 6.95988H50.1979L50.2315 2.25272C50.2315 2.04258 50.3342 1.91649 50.5334 1.91649H54.7271C54.7719 1.91373 54.8167 1.92053 54.8587 1.93645C54.9006 1.95237 54.9387 1.97704 54.9704 2.00883C55.0022 2.04062 55.0268 2.07881 55.0427 2.12085C55.0585 2.1629 55.0653 2.20785 55.0626 2.25272V6.95988H57.8723C57.9171 6.95711 57.9619 6.96391 58.0039 6.97983C58.0459 6.99575 58.084 7.02042 58.1157 7.05221C58.1474 7.084 58.172 7.12219 58.1879 7.16423C58.2038 7.20628 58.2106 7.25123 58.2078 7.2961V11.2636C58.2057 11.3052 58.1953 11.346 58.1771 11.3835C58.159 11.421 58.1335 11.4544 58.1022 11.4819C58.0709 11.5093 58.0345 11.5302 57.995 11.5432C57.9555 11.5562 57.9138 11.5612 57.8723 11.5578H55.0521L55.0185 15.0545C55.0521 17.7863 55.0856 18.5933 56.0921 18.5933Z" fill="black"/>
<path d="M59.7154 23.3257C59.6706 23.3284 59.6258 23.3216 59.5838 23.3057C59.5419 23.2898 59.5038 23.2651 59.472 23.2333C59.4403 23.2015 59.4157 23.1634 59.3998 23.1213C59.3839 23.0793 59.3771 23.0343 59.3799 22.9894V0.336246C59.3771 0.291373 59.3839 0.246424 59.3998 0.204378C59.4157 0.162333 59.4403 0.124149 59.472 0.092359C59.5038 0.0605685 59.5419 0.0358965 59.5838 0.0199775C59.6258 0.00405849 59.6706 -0.00274399 59.7154 2.07481e-05H67.1298C74.3093 2.07481e-05 79.0502 4.50544 79.0502 11.667C79.0502 18.8623 74.3198 23.3341 67.1402 23.3341L59.7154 23.3257ZM64.5129 4.90051V18.3916H67.1298C71.2227 18.3916 73.9402 15.7018 73.9402 11.667C73.9402 7.59872 71.2144 4.90891 67.1298 4.90891L64.5129 4.90051Z" fill="black"/>
<path d="M92.4258 7.29609C92.4929 7.08595 92.5935 6.95987 92.7948 6.95987H96.3594C96.4017 6.96087 96.4433 6.97051 96.4817 6.9882C96.5201 7.00589 96.5545 7.03125 96.5828 7.06274C96.611 7.09422 96.6326 7.13115 96.6461 7.17128C96.6596 7.21141 96.6648 7.25388 96.6614 7.29609V22.9978C96.6949 23.1659 96.5607 23.3341 96.3259 23.3341H92.7613C92.5516 23.3341 92.4594 23.1996 92.3923 22.9978L91.8555 21.6865C90.8071 22.9642 89.3393 23.7039 87.4521 23.7039C82.554 23.7711 79.2745 20.2408 79.2745 15.1974C79.2745 10.1204 82.5624 6.72451 87.4521 6.69089C89.3393 6.69089 90.8071 7.39696 91.8555 8.67462L92.4258 7.29609ZM87.7289 18.795C89.9096 18.795 91.3522 17.3829 91.3522 15.1974C91.3522 13.0456 89.8845 11.5998 87.7289 11.5998C85.5734 11.5998 84.1643 13.0456 84.1643 15.1974C84.1727 17.3156 85.6489 18.795 87.7289 18.795V18.795Z" fill="black"/>
<path d="M113.962 7.39696L105.005 30.6974C104.966 30.7826 104.905 30.8556 104.828 30.9089C104.751 30.9622 104.662 30.9937 104.569 31H100.207C100.153 31.0082 100.097 31.0008 100.046 30.9788C99.9954 30.9569 99.9519 30.9211 99.9205 30.8756C99.889 30.8301 99.871 30.7767 99.8683 30.7214C99.8656 30.6662 99.8783 30.6113 99.9052 30.5629L102.757 23.208L96.6761 7.40537C96.5754 7.13639 96.7096 7.0019 96.9109 6.96827H101.407C101.498 6.96378 101.589 6.99157 101.662 7.04682C101.736 7.10207 101.788 7.18132 101.809 7.27088L105.097 17.1223L108.888 7.27088C108.923 7.18292 108.983 7.10724 109.06 7.05339C109.138 6.99954 109.23 6.96992 109.324 6.96827H113.652C113.962 6.95987 114.067 7.12798 113.962 7.39696Z" fill="black"/>
</g>
<defs>
<clipPath id="clip0">
<rect width="114" height="31" fill="white"/>
</clipPath>
</defs>
</svg>
